<svg width="14" height="14" viewBox="0 0 14 14" fill="none" xmlns="http://www.w3.org/2000/svg">
<path d="M11.0833 2.33334H9.91667V1.16667H8.75V2.33334H5.25V1.16667H4.08333V2.33334H2.91667C2.27325 2.33334 1.75 2.85659 1.75 3.50001V11.6667C1.75 12.3101 2.27325 12.8333 2.91667 12.8333H11.0833C11.7267 12.8333 12.25 12.3101 12.25 11.6667V3.50001C12.25 2.85659 11.7267 2.33334 11.0833 2.33334ZM11.0845 11.6667H2.91667V4.66667H11.0833L11.0845 11.6667Z" fill="#FF5555"/>
<path d="M6.41669 10.1582L9.74577 6.82907L8.92094 6.00424L6.41669 8.50849L5.07911 7.17091L4.25427 7.99574L6.41669 10.1582Z" fill="#FF5555"/>
</svg>
