<svg width="14" height="14" viewBox="0 0 14 14" fill="none" xmlns="http://www.w3.org/2000/svg">
<path d="M4.08337 6.41667H5.25004V7.58334H4.08337V6.41667ZM4.08337 8.75H5.25004V9.91667H4.08337V8.75ZM6.41671 6.41667H7.58337V7.58334H6.41671V6.41667ZM6.41671 8.75H7.58337V9.91667H6.41671V8.75ZM8.75004 6.41667H9.91671V7.58334H8.75004V6.41667ZM8.75004 8.75H9.91671V9.91667H8.75004V8.75Z" fill="#FF5555"/>
<path d="M2.91667 12.8333H11.0833C11.7267 12.8333 12.25 12.3101 12.25 11.6667V3.50001C12.25 2.85659 11.7267 2.33334 11.0833 2.33334H9.91667V1.16667H8.75V2.33334H5.25V1.16667H4.08333V2.33334H2.91667C2.27325 2.33334 1.75 2.85659 1.75 3.50001V11.6667C1.75 12.3101 2.27325 12.8333 2.91667 12.8333ZM11.0833 4.66667L11.0839 11.6667H2.91667V4.66667H11.0833Z" fill="#FF5555"/>
</svg>
