<svg width="19" height="19" viewBox="0 0 19 19" fill="none" xmlns="http://www.w3.org/2000/svg">
<path d="M4.75 17.4167H16.625V15.8333H4.7595C4.39375 15.8238 3.95833 15.679 3.95833 15.0417C3.95833 14.4044 4.39375 14.2595 4.7595 14.25H16.625V3.16666C16.625 2.29345 15.9149 1.58333 15.0417 1.58333H4.75C3.79525 1.58333 2.375 2.21587 2.375 3.95833V15.0417C2.375 16.7841 3.79525 17.4167 4.75 17.4167ZM3.95833 6.33333V3.95833C3.95833 3.32104 4.39375 3.17616 4.75 3.16666H15.0417V12.6667H3.95833V6.33333Z" fill="#5AE1C3"/>
<path d="M6.33331 4.75H13.4583V6.33333H6.33331V4.75Z" fill="#5AE1C3"/>
</svg>
