<svg width="12" height="12" viewBox="0 0 12 12" fill="none" xmlns="http://www.w3.org/2000/svg">
<path d="M6.00002 12C6.66002 12 7.20002 11.46 7.20002 10.8H4.80002C4.80002 11.46 5.34002 12 6.00002 12ZM9.90002 8.4V5.1C9.90002 3.24 8.64002 1.74 6.90002 1.32V0.9C6.90002 0.42 6.48002 0 6.00002 0C5.52002 0 5.10002 0.42 5.10002 0.9V1.32C3.36002 1.74 2.10002 3.24 2.10002 5.1V8.4L0.900024 9.6V10.2H11.1V9.6L9.90002 8.4ZM8.70002 9H3.30002V5.1C3.30002 3.6 4.50002 2.4 6.00002 2.4C7.50002 2.4 8.70002 3.6 8.70002 5.1V9Z" fill="#277FFE"/>
</svg>
