<svg width="17" height="17" viewBox="0 0 17 17" fill="none" xmlns="http://www.w3.org/2000/svg">
<path d="M13.4598 2.125L3.54313 2.125C2.76184 2.125 2.12646 2.76037 2.12646 3.54167L2.12646 6.375H3.54313L3.54313 3.54167L13.4598 3.54167L13.4598 13.4583L3.54313 13.4583L3.54313 10.625H2.12646L2.12646 13.4583C2.12646 14.2396 2.76184 14.875 3.54313 14.875L13.4598 14.875C14.2411 14.875 14.8765 14.2396 14.8765 13.4583L14.8765 3.54167C14.8765 2.76037 14.2404 2.125 13.4598 2.125Z" fill="#FF5555"/>
<path d="M7.79167 11.3333L11.3333 8.49999L7.79167 5.66666V7.79237L2.125 7.79237V9.20903H7.79167L7.79167 11.3333Z" fill="#FF5555"/>
</svg>
