<svg width="17" height="17" viewBox="0 0 17 17" fill="none" xmlns="http://www.w3.org/2000/svg">
<path d="M8.97068 16H8.02929C7.26789 16 6.64841 15.3805 6.64841 14.6192V14.3007C6.32471 14.1972 6.0102 14.0667 5.70807 13.9103L5.48236 14.136C4.93571 14.6834 4.06006 14.6673 3.52929 14.1358L2.86393 13.4705C2.33222 12.9394 2.31692 12.064 2.8641 11.5174L3.08963 11.2919C2.93327 10.9898 2.80275 10.6753 2.69931 10.3516H2.38085C1.61948 10.3516 1 9.73211 1 8.97071V8.02929C1 7.26789 1.61948 6.64844 2.38088 6.64844H2.69934C2.80278 6.32471 2.9333 6.01023 3.08966 5.7081L2.86396 5.48242C2.3171 4.93615 2.33219 4.0607 2.86413 3.52935L3.52955 2.86396C4.06155 2.33122 4.937 2.31792 5.4826 2.86413L5.7081 3.08963C6.01023 2.9333 6.32474 2.80275 6.64844 2.69931V2.38085C6.64844 1.61945 7.26789 1 8.02932 1H8.97071C9.73211 1 10.3516 1.61945 10.3516 2.38085V2.69934C10.6753 2.80275 10.9898 2.9333 11.2919 3.08966L11.5176 2.86396C12.0643 2.31663 12.9399 2.33269 13.4707 2.86416L14.136 3.52949C14.6678 4.06062 14.683 4.93598 14.1359 5.48257L13.9103 5.7081C14.0667 6.01023 14.1972 6.32468 14.3007 6.64844H14.6191C15.3805 6.64844 16 7.26789 16 8.02929V8.97071C16 9.73211 15.3805 10.3516 14.6191 10.3516H14.3007C14.1972 10.6753 14.0667 10.9898 13.9103 11.2919L14.136 11.5176C14.6829 12.0639 14.6678 12.9393 14.1359 13.4707L13.4704 14.1361C12.9384 14.6688 12.063 14.6821 11.5174 14.1359L11.2919 13.9104C10.9898 14.0667 10.6753 14.1973 10.3516 14.3007V14.6192C10.3516 15.3805 9.73211 16 8.97068 16ZM5.85499 12.9874C6.27473 13.2356 6.72648 13.4232 7.1977 13.5448C7.39176 13.5948 7.52734 13.7699 7.52734 13.9703V14.6192C7.52734 14.8959 7.75255 15.1211 8.02932 15.1211H8.97071C9.24748 15.1211 9.47268 14.8959 9.47268 14.6192V13.9703C9.47268 13.7699 9.60827 13.5948 9.80233 13.5448C10.2735 13.4232 10.7253 13.2356 11.145 12.9874C11.3177 12.8853 11.5376 12.913 11.6795 13.0549L12.1391 13.5146C12.3373 13.713 12.6555 13.7084 12.8488 13.5148L13.5146 12.849C13.7075 12.6564 13.7139 12.3381 13.5148 12.1393L13.055 11.6794C12.9131 11.5376 12.8854 11.3177 12.9875 11.145C13.2357 10.7253 13.4232 10.2735 13.5448 9.8023C13.5949 9.60824 13.7699 9.47268 13.9703 9.47268H14.6192C14.8959 9.47268 15.1211 9.24751 15.1211 8.97074V8.02932C15.1211 7.75255 14.8959 7.52737 14.6192 7.52737H13.9703C13.7699 7.52737 13.5949 7.39179 13.5448 7.19775C13.4232 6.72651 13.2357 6.27476 12.9875 5.85505C12.8854 5.68237 12.9131 5.46247 13.055 5.32062L13.5146 4.86098C13.7133 4.66252 13.7081 4.34436 13.5148 4.15126L12.849 3.48549C12.6561 3.29225 12.3378 3.28659 12.1393 3.48531L11.6795 3.94513C11.5377 4.08701 11.3177 4.11479 11.1451 4.01266C10.7253 3.76442 10.2736 3.57689 9.80236 3.45528C9.6083 3.40521 9.47271 3.2302 9.47271 3.02978V2.38085C9.47271 2.10408 9.24751 1.87891 8.97074 1.87891H8.02935C7.75258 1.87891 7.52737 2.10408 7.52737 2.38085V3.02972C7.52737 3.23014 7.39179 3.40516 7.19772 3.45522C6.72651 3.57684 6.27476 3.76437 5.85502 4.0126C5.68229 4.1147 5.46241 4.08692 5.32056 3.94507L4.86095 3.48543C4.66278 3.28703 4.34453 3.29163 4.15126 3.48522L3.48543 4.15103C3.2926 4.34362 3.28615 4.66188 3.48525 4.86074L3.94507 5.32056C4.08692 5.46241 4.1147 5.68231 4.0126 5.85499C3.76437 6.2747 3.57687 6.72646 3.45525 7.1977C3.40516 7.39176 3.23014 7.52731 3.02975 7.52731H2.38088C2.10411 7.52734 1.87891 7.75252 1.87891 8.02929V8.97071C1.87891 9.24748 2.10411 9.47266 2.38088 9.47266H3.02972C3.23014 9.47266 3.40513 9.60824 3.45522 9.80227C3.57684 10.2735 3.76437 10.7253 4.01257 11.145C4.11467 11.3177 4.08689 11.5376 3.94504 11.6794L3.4854 12.1391C3.28671 12.3375 3.29189 12.6557 3.48522 12.8488L4.151 13.5145C4.34397 13.7078 4.66226 13.7134 4.86071 13.5147L5.3205 13.0549C5.42503 12.9504 5.6425 12.8617 5.85499 12.9874Z" fill="#277FFE" stroke="#277FFE" stroke-width="0.3"/>
<path d="M8.5 12C6.57007 12 5 10.4299 5 8.5C5 6.5701 6.57007 5 8.5 5C10.4299 5 12 6.5701 12 8.5C12 10.4299 10.4299 12 8.5 12ZM8.5 5.94255C7.08979 5.94255 5.94255 7.08982 5.94255 8.5C5.94255 9.91018 7.08982 11.0575 8.5 11.0575C9.91018 11.0575 11.0575 9.91018 11.0575 8.5C11.0575 7.08982 9.91021 5.94255 8.5 5.94255Z" fill="#277FFE" stroke="#277FFE" stroke-width="0.3"/>
</svg>
