<svg width="17" height="17" viewBox="0 0 17 17" fill="none" xmlns="http://www.w3.org/2000/svg">
<path d="M4.95825 7.79166H6.37492V9.20832H4.95825V7.79166ZM4.95825 10.625H6.37492V12.0417H4.95825V10.625ZM7.79158 7.79166H9.20825V9.20832H7.79158V7.79166ZM7.79158 10.625H9.20825V12.0417H7.79158V10.625ZM10.6249 7.79166H12.0416V9.20832H10.6249V7.79166ZM10.6249 10.625H12.0416V12.0417H10.6249V10.625Z" fill="#277FFE"/>
<path d="M3.54167 15.5833H13.4583C14.2396 15.5833 14.875 14.948 14.875 14.1667V4.24999C14.875 3.4687 14.2396 2.83332 13.4583 2.83332H12.0417V1.41666H10.625V2.83332H6.375V1.41666H4.95833V2.83332H3.54167C2.76037 2.83332 2.125 3.4687 2.125 4.24999V14.1667C2.125 14.948 2.76037 15.5833 3.54167 15.5833ZM13.4583 5.66666L13.459 14.1667H3.54167V5.66666H13.4583Z" fill="#277FFE"/>
</svg>
