<svg width="100" height="100" viewBox="0 0 100 100" fill="none" xmlns="http://www.w3.org/2000/svg">
<g filter="url(#filter0_d_133_1746)">
<rect x="20" y="16" width="60" height="60" rx="30" fill="#277FFE"/>
</g>
<g clip-path="url(#clip0_133_1746)">
<path d="M63.4999 44.5H51.5001V32.4999C51.5001 31.6721 50.828 31 49.9999 31C49.1721 31 48.5 31.6721 48.5 32.4999V44.5H36.4999C35.6721 44.5 35 45.1721 35 45.9999C35 46.828 35.6721 47.5001 36.4999 47.5001H48.5V59.4999C48.5 60.328 49.1721 61.0001 49.9999 61.0001C50.828 61.0001 51.5001 60.328 51.5001 59.4999V47.5001H63.4999C64.328 47.5001 65.0001 46.828 65.0001 45.9999C65.0001 45.1721 64.328 44.5 63.4999 44.5Z" fill="white"/>
</g>
<defs>
<filter id="filter0_d_133_1746" x="0" y="0" width="100" height="100" filterUnits="userSpaceOnUse" color-interpolation-filters="sRGB">
<feFlood flood-opacity="0" result="BackgroundImageFix"/>
<feBlend mode="normal" in="SourceGraphic" in2="effect1_dropShadow_133_1746" result="shape"/>
</filter>
</defs>
</svg>
