<svg width="14" height="14" viewBox="0 0 14 14" fill="none" xmlns="http://www.w3.org/2000/svg">
<path d="M4.08337 6.41666H5.25004V7.58332H4.08337V6.41666ZM4.08337 8.74999H5.25004V9.91666H4.08337V8.74999ZM6.41671 6.41666H7.58337V7.58332H6.41671V6.41666ZM6.41671 8.74999H7.58337V9.91666H6.41671V8.74999ZM8.75004 6.41666H9.91671V7.58332H8.75004V6.41666ZM8.75004 8.74999H9.91671V9.91666H8.75004V8.74999Z" fill="#277FFE"/>
<path d="M2.91667 12.8333H11.0833C11.7267 12.8333 12.25 12.3101 12.25 11.6667V3.49999C12.25 2.85657 11.7267 2.33332 11.0833 2.33332H9.91667V1.16666H8.75V2.33332H5.25V1.16666H4.08333V2.33332H2.91667C2.27325 2.33332 1.75 2.85657 1.75 3.49999V11.6667C1.75 12.3101 2.27325 12.8333 2.91667 12.8333ZM11.0833 4.66666L11.0839 11.6667H2.91667V4.66666H11.0833Z" fill="#277FFE"/>
</svg>
