<svg width="17" height="17" viewBox="0 0 17 17" fill="none" xmlns="http://www.w3.org/2000/svg">
<path d="M4.1585 10.3391L2.97892 15.4469C2.94239 15.6016 2.95336 15.7636 3.01038 15.912C3.06741 16.0603 3.16784 16.188 3.29857 16.2784C3.42929 16.3688 3.58423 16.4176 3.74315 16.4185C3.90207 16.4195 4.05758 16.3725 4.18938 16.2837L8.5 13.4099L12.8106 16.2837C12.9455 16.3732 13.1045 16.4193 13.2663 16.4158C13.4282 16.4122 13.585 16.3592 13.7158 16.2638C13.8466 16.1685 13.9451 16.0353 13.9979 15.8824C14.0508 15.7294 14.0556 15.5639 14.0116 15.4081L12.5636 10.3414L16.1546 7.10985C16.2696 7.00629 16.3518 6.87129 16.3909 6.72154C16.43 6.5718 16.4243 6.41388 16.3746 6.26731C16.3249 6.12074 16.2334 5.99195 16.1112 5.89687C15.9891 5.80179 15.8418 5.74459 15.6875 5.73235L11.1743 5.37293L9.22121 1.04964C9.15893 0.910427 9.0577 0.792215 8.92973 0.709268C8.80175 0.626321 8.6525 0.582184 8.5 0.582184C8.3475 0.582184 8.19825 0.626321 8.07028 0.709268C7.9423 0.792215 7.84107 0.910427 7.77879 1.04964L5.82575 5.37293L1.31246 5.73155C1.16082 5.74357 1.01585 5.79901 0.894898 5.89126C0.773945 5.9835 0.682128 6.10864 0.630433 6.2517C0.578737 6.39476 0.569351 6.54969 0.603399 6.69794C0.637446 6.8462 0.713484 6.98151 0.822417 7.08768L4.1585 10.3391ZM6.41713 6.9143C6.55843 6.90317 6.69414 6.85423 6.81003 6.77261C6.92592 6.69098 7.01771 6.57969 7.07579 6.45039L8.5 3.29876L9.92421 6.45039C9.98229 6.57969 10.0741 6.69098 10.19 6.77261C10.3059 6.85423 10.4416 6.90317 10.5829 6.9143L13.7274 7.16368L11.1378 9.49435C10.913 9.69701 10.8235 10.0089 10.9059 10.3003L11.8978 13.7717L8.94017 11.7997C8.81035 11.7125 8.65754 11.666 8.50119 11.666C8.34484 11.666 8.19203 11.7125 8.06221 11.7997L4.97154 13.8604L5.80279 10.2615C5.83327 10.1291 5.82918 9.99113 5.79091 9.8608C5.75265 9.73047 5.68149 9.61218 5.58429 9.5173L3.17921 7.17239L6.41713 6.9143Z" fill="#F4A316"/>
</svg>
