<svg width="19" height="19" viewBox="0 0 19 19" fill="none" xmlns="http://www.w3.org/2000/svg">
<path d="M5.54169 8.70833H7.12502V10.2917H5.54169V8.70833ZM5.54169 11.875H7.12502V13.4583H5.54169V11.875ZM8.70835 8.70833H10.2917V10.2917H8.70835V8.70833ZM8.70835 11.875H10.2917V13.4583H8.70835V11.875ZM11.875 8.70833H13.4584V10.2917H11.875V8.70833ZM11.875 11.875H13.4584V13.4583H11.875V11.875Z" fill="#FF5555"/>
<path d="M3.95833 17.4167H15.0417C15.9149 17.4167 16.625 16.7065 16.625 15.8333V4.75C16.625 3.87679 15.9149 3.16666 15.0417 3.16666H13.4583V1.58333H11.875V3.16666H7.125V1.58333H5.54167V3.16666H3.95833C3.08512 3.16666 2.375 3.87679 2.375 4.75V15.8333C2.375 16.7065 3.08512 17.4167 3.95833 17.4167ZM15.0417 6.33333L15.0425 15.8333H3.95833V6.33333H15.0417Z" fill="#FF5555"/>
</svg>
