<svg width="17" height="17" viewBox="0 0 17 17" fill="none" xmlns="http://www.w3.org/2000/svg">
<path d="M14.3499 7.84998H9.15002V2.64996C9.15002 2.29124 8.85878 2 8.49994 2C8.14122 2 7.84998 2.29124 7.84998 2.64996V7.84998H2.64996C2.29124 7.84998 2 8.14122 2 8.49994C2 8.85878 2.29124 9.15002 2.64996 9.15002H7.84998V14.3499C7.84998 14.7088 8.14122 15 8.49994 15C8.85878 15 9.15002 14.7088 9.15002 14.3499V9.15002H14.3499C14.7088 9.15002 15 8.85878 15 8.49994C15 8.14122 14.7088 7.84998 14.3499 7.84998Z" fill="#277FFE"/>
</svg>
