<svg width="18" height="10" viewBox="0 0 18 10" fill="none" xmlns="http://www.w3.org/2000/svg">
<path d="M8.99967 0C4.00016 0 0.0934238 4.62891 0.0934238 4.62891C-0.029623 4.76953 -0.029623 4.98047 0.0934238 5.12109C0.0934238 5.12109 4.00016 9.75 8.99967 9.75C13.9992 9.75 17.9059 5.12109 17.9059 5.12109C18.029 4.98047 18.029 4.76953 17.9059 4.62891C17.9059 4.62891 13.9992 0 8.99967 0ZM8.99967 0.75C9.98551 0.75 10.9274 0.953613 11.8005 1.26562C12.3864 1.92773 12.7497 2.79346 12.7497 3.75C12.7497 5.82568 11.0754 7.5 8.99967 7.5C6.92399 7.5 5.24967 5.82568 5.24967 3.75C5.24967 2.79346 5.60124 1.92773 6.18717 1.26562C7.06315 0.952149 8.0109 0.75 8.99967 0.75ZM4.94499 1.81641C4.66374 2.40234 4.49967 3.05859 4.49967 3.75C4.49967 6.23145 6.51823 8.25 8.99967 8.25C11.4811 8.25 13.4997 6.23145 13.4997 3.75C13.4997 3.06152 13.3429 2.40234 13.0661 1.81641C15.1842 2.89307 16.7077 4.45459 17.0973 4.875C16.488 5.53418 13.1144 9 8.99967 9C4.88493 9 1.51139 5.53418 0.902018 4.875C1.29167 4.45312 2.82243 2.89307 4.94499 1.81641ZM8.99967 1.875C7.96403 1.875 7.12467 2.71436 7.12467 3.75C7.12467 4.78564 7.96403 5.625 8.99967 5.625C10.0353 5.625 10.8747 4.78564 10.8747 3.75C10.8747 2.71436 10.0353 1.875 8.99967 1.875Z" fill="#828282"/>
</svg>
