<svg width="17" height="17" viewBox="0 0 17 17" fill="none" xmlns="http://www.w3.org/2000/svg">
<path d="M8.5 1.41666C7.79952 1.41666 7.11478 1.62437 6.53236 2.01353C5.94993 2.4027 5.49599 2.95583 5.22793 3.60299C4.95987 4.25014 4.88973 4.96225 5.02639 5.64927C5.16304 6.33628 5.50035 6.96735 5.99566 7.46266C6.49097 7.95797 7.12204 8.29528 7.80906 8.43194C8.49607 8.56859 9.20818 8.49846 9.85534 8.2304C10.5025 7.96234 11.0556 7.50839 11.4448 6.92597C11.834 6.34354 12.0417 5.6588 12.0417 4.95832C12.0417 4.01901 11.6685 3.11818 11.0043 2.45399C10.3401 1.7898 9.43931 1.41666 8.5 1.41666V1.41666ZM8.5 7.08332C8.07971 7.08332 7.66887 6.95869 7.31941 6.7252C6.96996 6.4917 6.69759 6.15982 6.53676 5.77153C6.37592 5.38323 6.33384 4.95597 6.41583 4.54376C6.49782 4.13155 6.70021 3.75291 6.9974 3.45572C7.29458 3.15853 7.67322 2.95615 8.08543 2.87415C8.49764 2.79216 8.92491 2.83424 9.3132 2.99508C9.7015 3.15592 10.0334 3.42828 10.2669 3.77774C10.5004 4.12719 10.625 4.53804 10.625 4.95832C10.625 5.52191 10.4011 6.06241 10.0026 6.46093C9.60409 6.85944 9.06358 7.08332 8.5 7.08332V7.08332ZM14.875 14.875V14.1667C14.875 12.8516 14.3526 11.5905 13.4227 10.6606C12.4929 9.73072 11.2317 9.20832 9.91667 9.20832H7.08333C5.7683 9.20832 4.50713 9.73072 3.57726 10.6606C2.64739 11.5905 2.125 12.8516 2.125 14.1667V14.875H3.54167V14.1667C3.54167 13.2273 3.91481 12.3265 4.579 11.6623C5.24319 10.9981 6.14402 10.625 7.08333 10.625H9.91667C10.856 10.625 11.7568 10.9981 12.421 11.6623C13.0852 12.3265 13.4583 13.2273 13.4583 14.1667V14.875H14.875Z" fill="#277FFE"/>
</svg>
